<svg id="Outline" xmlns="http://www.w3.org/2000/svg" viewBox="0 0 512 512"><defs><style>.cls-1,.cls-2{fill:#e9f2fb;}.cls-1{stroke:#080a0a;}.cls-1,.cls-10,.cls-11,.cls-12,.cls-2,.cls-3,.cls-4,.cls-5,.cls-6,.cls-7,.cls-8{stroke-linecap:round;stroke-linejoin:round;stroke-width:15.08px;}.cls-10,.cls-11,.cls-12,.cls-2,.cls-3,.cls-4,.cls-5,.cls-6,.cls-7,.cls-8{stroke:#070909;}.cls-3{fill:#82c9ef;}.cls-4{fill:none;}.cls-5{fill:#f05644;}.cls-6{fill:#fbdc10;}.cls-7{fill:#e98fbc;}.cls-8{fill:#5d5e5e;}.cls-9{fill:#070909;}.cls-10{fill:#fbbe7c;}.cls-11{fill:#fde279;}.cls-12{fill:#c27c47;}</style></defs><title>ice-cream-truck</title><path class="cls-1" d="M497.28,206.48v252H165.93V252H94.61c-22.11,0-40.74-17.44-41.18-39.55a40.38,40.38,0,0,1,40.37-41.21H462.07A35.21,35.21,0,0,1,497.28,206.48Z"/><path class="cls-2" d="M32.43,340.69H165.92a0,0,0,0,1,0,0V458.47a0,0,0,0,1,0,0H26.4a11.68,11.68,0,0,1-11.68-11.68V358.4A17.71,17.71,0,0,1,32.43,340.69Z"/><polygon class="cls-3" points="95.26 252.04 52.03 340.69 165.92 340.69 165.92 252.04 95.26 252.04"/><rect class="cls-3" x="209.11" y="213.64" width="246.71" height="116.33"/><line class="cls-4" x1="464.1" y1="329.97" x2="197.48" y2="329.97"/><polygon class="cls-5" points="209.11 213.64 244.36 213.64 244.36 241.47 226.73 259.84 209.11 241.47 209.11 213.64"/><polygon class="cls-6" points="244.36 213.64 279.6 213.64 279.6 241.47 261.98 259.84 244.36 241.47 244.36 213.64"/><polygon class="cls-5" points="279.6 213.64 314.85 213.64 314.85 241.47 297.22 259.84 279.6 241.47 279.6 213.64"/><polygon class="cls-6" points="314.85 213.64 350.09 213.64 350.09 241.47 332.47 259.84 314.85 241.47 314.85 213.64"/><polygon class="cls-5" points="350.09 213.64 385.34 213.64 385.34 241.47 367.71 259.84 350.09 241.47 350.09 213.64"/><polygon class="cls-6" points="385.34 213.64 420.58 213.64 420.58 241.47 402.96 259.84 385.34 241.47 385.34 213.64"/><polygon class="cls-5" points="420.58 213.64 455.83 213.64 455.83 241.47 438.2 259.84 420.58 241.47 420.58 213.64"/><rect class="cls-7" x="165.93" y="380.36" width="331.35" height="78.11"/><circle class="cls-8" cx="97.51" cy="460.42" r="44.08"/><circle class="cls-9" cx="97.51" cy="460.42" r="9.92"/><circle class="cls-8" cx="404.37" cy="460.42" r="44.08"/><circle class="cls-9" cx="404.37" cy="460.42" r="9.92"/><line class="cls-4" x1="115.41" y1="375.64" x2="129.93" y2="375.64"/><path class="cls-6" d="M14.72,371.28H33.1a16.61,16.61,0,0,1,16.61,16.61v.17A16.61,16.61,0,0,1,33.1,404.68H14.72a0,0,0,0,1,0,0v-33.4a0,0,0,0,1,0,0Z"/><g id="ice-cream"><polyline class="cls-10" points="293.7 51.09 376.36 160.29 240.19 145.63"/><circle class="cls-11" cx="192.75" cy="56.37" r="45.14" transform="translate(48.75 196.34) rotate(-60.49)"/><circle class="cls-12" cx="221.02" cy="121.77" r="45.14" transform="translate(6.18 254.13) rotate(-60.49)"/><circle class="cls-7" cx="260.14" cy="52.65" r="45.14" transform="translate(86.18 253.11) rotate(-60.49)"/></g></svg>