<svg id="Layer_1" data-name="Layer 1" xmlns="http://www.w3.org/2000/svg" xmlns:xlink="http://www.w3.org/1999/xlink" viewBox="0 0 512 512"><defs><style>.cls-1,.cls-12,.cls-13,.cls-5,.cls-9{fill:none;}.cls-2{fill:#95d6a4;}.cls-3{clip-path:url(#clip-path);}.cls-4{fill:#78c2a4;}.cls-11,.cls-12,.cls-13,.cls-5,.cls-6,.cls-9{stroke:#000;stroke-miterlimit:10;}.cls-5,.cls-6{stroke-width:12.66px;}.cls-6,.cls-7{fill:#365e7d;}.cls-8{fill:#2b4d66;}.cls-12,.cls-13,.cls-9{stroke-linecap:round;}.cls-9{stroke-width:12.66px;}.cls-10{fill:#f9f6f6;}.cls-11{fill:#aa7a63;}.cls-11,.cls-12{stroke-width:11.86px;}.cls-13{stroke-width:11.86px;}</style><clipPath id="clip-path"><path class="cls-1" d="M394.5,143.33c-.29,40.22-2.07,83.48-6,129.34a1642.12,1642.12,0,0,1-26,182.24c-3,29.1-25.2,51.09-51.62,51.09H160.66C134.24,506,112,484,109,454.91A1642.12,1642.12,0,0,1,83,272.67c-3.94-45.86-5.72-89.12-6-129.34Z"/></clipPath></defs><title>hot-drinks</title><g id="_1" data-name="1"><path class="cls-2" d="M394.5,143.33c-.29,40.22-2.07,83.48-6,129.34a1642.12,1642.12,0,0,1-26,182.24c-3,29.1-25.2,51.09-51.62,51.09H160.66C134.24,506,112,484,109,454.91A1642.12,1642.12,0,0,1,83,272.67c-3.94-45.86-5.72-89.12-6-129.34Z"/><g class="cls-3"><path class="cls-4" d="M177.12,464.17a1740.74,1740.74,0,0,1-27.59-193.28c-3.87-45-5.77-87.65-6.28-127.56H77c.29,40.22,2.07,83.48,6,129.34a1642.12,1642.12,0,0,0,26,182.24C112,484,134.24,506,160.66,506h38C187,496.22,178.89,481.37,177.12,464.17Z"/><path class="cls-4" d="M452,178.78a2083.69,2083.69,0,0,1-213.1,11.07h-6.27a2083.69,2083.69,0,0,1-213.1-11.07c-18.21-1.88-30.44-20.7-25.64-39.41l14-54.8a10,10,0,0,1,9.59-7.76H454a10,10,0,0,1,9.59,7.76l14,54.8C482.43,158.08,470.2,176.9,452,178.78Z"/></g><path class="cls-5" d="M394.5,143.33c-.29,40.22-2.07,83.48-6,129.34a1642.12,1642.12,0,0,1-26,182.24c-3,29.1-25.2,51.09-51.62,51.09H160.66C134.24,506,112,484,109,454.91A1642.12,1642.12,0,0,1,83,272.67c-3.94-45.86-5.72-89.12-6-129.34Z"/></g><path class="cls-6" d="M280.14,6h54.34a8.31,8.31,0,0,1,8.31,8.31V42a0,0,0,0,1,0,0h-71a0,0,0,0,1,0,0V14.31A8.31,8.31,0,0,1,280.14,6Z"/><g id="_2" data-name="2"><path class="cls-7" d="M401.53,158.84a1597.73,1597.73,0,0,1-163.37,8.49h-4.81A1597.73,1597.73,0,0,1,70,158.84C56,157.4,46.63,143,50.31,128.63l10.74-42a7.7,7.7,0,0,1,7.35-5.94H403.11a7.7,7.7,0,0,1,7.35,5.94l10.74,42C424.88,143,415.5,157.4,401.53,158.84Z"/><path class="cls-8" d="M110.64,135.07,123.94,83a10.45,10.45,0,0,1,1-2.33H68.4a7.7,7.7,0,0,0-7.35,5.94l-10.74,42C46.63,143,56,157.4,70,158.84q22.86,2.37,47.07,4.17A31,31,0,0,1,110.64,135.07Z"/><path class="cls-9" d="M147.06,164.94c27.64,1.51,56.43,2.37,86.29,2.39h4.81a1597.73,1597.73,0,0,0,163.37-8.49c14-1.44,23.35-15.87,19.67-30.21l-10.74-42a7.7,7.7,0,0,0-7.35-5.94H68.4a7.7,7.7,0,0,0-7.35,5.94l-10.74,42C46.63,143,56,157.4,70,158.84q25.58,2.64,52.83,4.58"/></g><path class="cls-7" d="M375.26,80.67h-279l5.17-24.8C103.34,47.71,110,42,117.59,42H353.92c7.6,0,14.25,5.71,16.17,13.87Z"/><path class="cls-8" d="M150.37,66l5-24H117.59c-7.6,0-14.25,5.71-16.17,13.87l-5.17,24.8h279L372.2,66Z"/><path class="cls-5" d="M375.26,80.67h-279l5.17-24.8C103.34,47.71,110,42,117.59,42H353.92c7.6,0,14.25,5.71,16.17,13.87Z"/><g id="Symbol"><circle class="cls-10" cx="236" cy="316.33" r="91.33"/><ellipse class="cls-11" cx="235.41" cy="316.93" rx="51.91" ry="35.52" transform="translate(-155.15 259.28) rotate(-45)"/><line class="cls-12" x1="258.59" y1="292.97" x2="211.45" y2="340.11"/><path class="cls-13" d="M280.75,396a91.44,91.44,0,1,1,16.76-12.12"/></g></svg>