<svg height="511pt" viewBox="-48 0 511 511.99884" width="511pt" xmlns="http://www.w3.org/2000/svg"><path d="m277.167969 108.957031c15.671875-74.664062-41.832031-95.585937-69.589844-101.292969-5.726563-1.175781-10.480469 4.394532-8.496094 9.894532 5.238281 14.539062 8.203125 38.597656-22.242187 50.414062-26.832032 10.414063-28.460938 30.128906-27.03125 40.984375zm0 0" fill="#855151"/><path d="m207.578125 7.667969c-3.972656-.816407-7.472656 1.617187-8.582031 5.019531 26.664062 13.144531 56.324218 42.050781 46.933594 96.269531h31.238281c15.671875-74.660156-41.835938-95.585937-69.589844-101.289062zm0 0" fill="#704444"/><path d="m303.472656 162.648438h-189.117187v-36.960938c0-15.695312 13.265625-28.125 28.925781-27.109375l139.015625 9.03125c11.910156.773437 21.175781 10.660156 21.175781 22.597656zm0 0" fill="#bb8080"/><path d="m282.296875 107.609375-24.992187-1.625c8.6875 3.203125 14.804687 11.550781 14.804687 21.25v35.414063h31.363281v-32.441407c0-11.9375-9.265625-21.828125-21.175781-22.597656zm0 0" fill="#af6c6c"/><path d="m340.472656 218.3125h-263.117187v-37.792969c0-21.835937 18.453125-39.128906 40.242187-37.710937l193.410156 12.558594c16.574219 1.078124 29.464844 14.832031 29.464844 31.441406zm0 0" fill="#855151"/><path d="m311.007812 155.367188-23.8125-1.546876c12.777344 4.078126 21.914063 16.035157 21.914063 30.015626v34.476562h31.363281v-31.503906c0-16.609375-12.890625-30.363282-29.464844-31.441406zm0 0" fill="#704444"/><path d="m373.160156 281.355469h-328.492187v-47.183594c0-27.261719 23.039062-48.851563 50.242187-47.085937l241.464844 15.683593c20.691406 1.34375 36.785156 18.519531 36.785156 39.253907zm0 0" fill="#bb8080"/><path d="m336.375 202.769531-22.945312-1.488281c16.476562 4.769531 28.371093 19.949219 28.371093 37.769531v42.304688h31.359375v-39.335938c0-20.730469-16.09375-37.90625-36.785156-39.25zm0 0" fill="#af6c6c"/><path d="m319.234375 504.5h-222.121094c-13.984375 0-25.933593-10.066406-28.304687-23.847656l-37.53125-218.003906h353.792968l-37.53125 218.003906c-2.371093 13.78125-14.324218 23.847656-28.304687 23.847656zm0 0" fill="#6bdae8"/><path d="m352.878906 262.648438-37.527344 218.003906c-2.375 13.78125-14.324218 23.847656-28.304687 23.847656h32.1875c13.980469 0 25.929687-10.066406 28.304687-23.847656l37.527344-218.003906zm0 0" fill="#2dd2e3"/><path d="m389.882812 281.957031h-363.417968c-10.199219 0-18.464844-8.265625-18.464844-18.464843 0-10.199219 8.265625-18.46875 18.464844-18.46875h363.417968c10.199219 0 18.464844 8.269531 18.464844 18.46875 0 10.199218-8.265625 18.464843-18.464844 18.464843zm0 0" fill="#2dd2e3"/><path d="m355.296875 435.578125 13.304687-77.28125h-320.855468l13.300781 77.28125zm0 0" fill="#fef1da"/><path d="m323.109375 435.578125h32.1875l13.304687-77.28125h-32.1875zm0 0" fill="#fde6bf"/><path d="m279.765625 396.9375c0 39.539062-32.054687 71.59375-71.59375 71.59375s-71.589844-32.054688-71.589844-71.59375 32.050781-71.589844 71.589844-71.589844 71.59375 32.050782 71.59375 71.589844zm0 0" fill="#fde6bf"/><path d="m208.171875 325.347656c-5.445313 0-10.746094.628906-15.84375 1.78125 31.910156 7.214844 55.746094 35.71875 55.746094 69.808594s-23.835938 62.597656-55.746094 69.808594c5.097656 1.15625 10.398437 1.785156 15.84375 1.785156 39.539063 0 71.59375-32.054688 71.59375-71.59375 0-39.535156-32.054687-71.589844-71.59375-71.589844zm0 0" fill="#fdd79b"/><path d="m208.171875 476.027344c43.613281 0 79.09375-35.476563 79.09375-79.089844 0-43.609375-35.480469-79.089844-79.09375-79.089844-43.609375 0-79.089844 35.480469-79.089844 79.089844 0 43.613281 35.480469 79.089844 79.089844 79.089844zm0-143.179688c35.339844 0 64.09375 28.75 64.09375 64.089844s-28.753906 64.089844-64.09375 64.089844-64.089844-28.75-64.089844-64.089844 28.75-64.089844 64.089844-64.089844zm0 0"/><path d="m389.882812 237.527344h-9.4375c-1.8125-18.800782-14.847656-34.546875-32.472656-40.152344v-10.566406c0-20.496094-16.023437-37.59375-36.476562-38.921875l-.523438-.035157v-17.648437c0-14.667969-10.621094-27.085937-24.746094-29.65625 4.191407-30.714844-3.449218-55.535156-22.769531-73.871094-16.875-16.015625-38.878906-23.175781-54.367187-26.355469-11.53125-2.367187-21.007813 8.832032-17.0625 19.78125 7.402344 20.550782.644531 33.683594-17.898438 40.878907-19.359375 7.511719-27.382812 19.519531-30.453125 30.105469-9.496093-.585938-18.914062 2.800781-25.855469 9.304687-14.324218 13.425781-10.285156 30.695313-10.960937 35.609375-22.042969 4.132812-37 23.3125-37 44.519531v3.539063c-35.941406 15.832031-32.523437 52.917968-32.6875 53.464844h-10.707031c-14.316406 0-25.964844 11.648437-25.964844 25.964843 0 14.320313 11.648438 25.964844 25.964844 25.964844h1.816406l33.136719 192.472656c3 17.425781 18.011719 30.074219 35.695312 30.074219h222.121094c17.683594 0 32.695313-12.648438 35.695313-30.074219l33.132812-192.472656h1.820312c14.316407 0 25.964844-11.644531 25.964844-25.964844 0-14.3125-11.648437-25.960937-25.964844-25.960937zm-210.332031-162.5625c26.847657-10.421875 36.542969-32.246094 26.613281-59.933594 28.4375 5.867188 73.574219 24.609375 65.074219 84.34375l-111.992187-7.273438c3.289062-7.425781 10.085937-13.167968 20.304687-17.136718zm-62.4375 75.328125 22.894531 1.484375c4.125.265625 7.699219-2.863282 7.96875-6.996094.269532-4.132812-2.863281-7.703125-6.996093-7.96875l-19.125-1.242188c.6875-6.355468-2.503907-16.058593 6.21875-24.230468 4.011719-3.757813 9.242187-5.628906 14.722656-5.273438l139.011719 9.027344c7.945312.515625 14.164062 7.152344 14.164062 15.113281v16.671875l-125.023437-8.121094c-4.136719-.265624-7.703125 2.863282-7.972657 6.996094-.265624 4.136719 2.867188 7.703125 7 7.972656l140.546876 9.128907c12.589843.816406 22.449218 11.339843 22.449218 23.953125v8.226562l-237.574218-15.429687c-3.5625-.230469-7.085938-.125-10.535157.308593.332031-17.226562 14.957031-30.75 32.25-29.621093zm-64.945312 83.878906c0-22.949219 19.347656-41.097656 42.253906-39.601563l241.46875 15.683594c15.171875.984375 27.355469 12.601563 29.449219 27.269532h-313.171875zm310.113281 116.625h-62.453125c-9.914063 0-9.929687 15 0 15h59.871094l-10.722657 62.28125h-49.394531c-9.914062 0-9.933593 15 0 15h46.8125l-6.25 36.304687c-1.753906 10.207032-10.550781 17.617188-20.910156 17.617188h-222.121094c-10.359375 0-19.15625-7.410156-20.914062-17.617188l-6.25-36.304687h47.316406c9.914063 0 9.933594-15 0-15h-49.898437l-10.722657-62.28125h60.457031c9.914063 0 9.933594-15 0-15h-63.039062l-10.558594-61.339844h329.339844zm27.601562-76.339844h-363.417968c-14.511719 0-14.5-21.929687 0-21.929687h363.417968c6.046876 0 10.964844 4.917968 10.964844 10.964844 0 6.042968-4.917968 10.964843-10.964844 10.964843zm0 0"/></svg>