<svg id="Layer_2" data-name="Layer 2" xmlns="http://www.w3.org/2000/svg" viewBox="0 0 534.72 401.64"><defs><style>.cls-1{fill:#00b3c4;}</style></defs><title>cloud-outline</title><path class="cls-1" d="M306.44,36.82A104.87,104.87,0,0,1,411.19,141.57v.13a29,29,0,0,0,27.52,29,70.73,70.73,0,1,1-19,139.69A29,29,0,0,0,387,326.54a65.94,65.94,0,0,1-59.73,38.28,65.15,65.15,0,0,1-47.15-19.94,29,29,0,0,0-20.81-8.81h-.2a29,29,0,0,0-20.89,9.1,62,62,0,0,1-45.54,19.65,62.68,62.68,0,0,1-62.45-58.41,29,29,0,0,0-40.31-24.79A43.8,43.8,0,1,1,72.79,197.5H74a29,29,0,0,0,28.59-33.87,58.64,58.64,0,0,1,57.75-68.52,58.22,58.22,0,0,1,21.24,4,29,29,0,0,0,35.3-11.93,104.67,104.67,0,0,1,89.53-50.33m0-29A133.67,133.67,0,0,0,192.15,72.06,87.64,87.64,0,0,0,74,168.51H72.79A72.8,72.8,0,1,0,101.3,308.3a91.59,91.59,0,0,0,158,56.77,94.73,94.73,0,0,0,154-26.41,99.73,99.73,0,1,0,26.83-197v-.13A133.75,133.75,0,0,0,306.44,7.82Z"/></svg>